

<svg xmlns="http://www.w3.org/2000/svg" width="68.031" height="37.795" viewBox="0 0 18 10" stroke="#5da5b9" fill="#5da5b9" xmlns:v="https://vecta.io/nano"><g transform="matrix(.189542 -.160359 .12157 .250018 -7.200632 5.174233)"><path d="M90.738 52.008c-2.517-.162-7.93-1.129-12.358-2.208-9.345-2.278-17.998-5.826-25.578-10.49-3.196-1.967-5.59-3.731-10.48-7.724-2.845-2.323-3.839-2.991-4.94-3.319-.516-.154-1.704-.28-2.642-.281-.69-.001-.246-.187-5.516 2.323-4.534 2.16-5.495 2.6-5.554 2.541-.084-.084.58-.838 1.131-1.285.303-.246 1.229-.909 2.057-1.474 4.006-2.732 4.983-3.708 5.946-5.944.409-.95.448-1.22.445-3.115-.003-1.753-.058-2.503-.347-4.735-.272-2.095-.336-3.778-.142-3.713.172.057.577.756 2.007 3.457 2.251 4.254 2.239 4.233 3.008 4.995.902.893 2.444 1.777 3.545 2.033.794.184 2.189.371 6.135.823 8.476.971 10.495 1.295 14.851 2.381 10.539 2.629 20.59 7.499 28.807 13.96 2.221 1.746 4.783 4.058 6.256 5.644 1.488 1.603 1.544 1.707 1.584 2.934.04 1.26-.002 1.383-.71 2.084-.662.655-1.049.862-1.823.975-1.342.195-3.845.256-5.68.138zm-2.651-1.093c0-.036-.032-.085-.072-.109-.101-.062-.29.021-.238.105s.31.091.31.005zm-1.67-.297c-.016-.047-.085-.086-.155-.086s-.139.039-.155.086c-.018.054.039.086.155.086s.173-.032.155-.086zm-2.117-.397c.086-.056.087-.078.01-.128-.101-.065-.354-.024-.354.057 0 .143.179.18.344.071zm-13.958-3.556c-.047-.019-.125-.019-.172 0s-.009.035.086.035.133-.016.086-.035zm11.549-11.724c0-.104-.289-.347-.36-.303-.035.022.006.113.091.204.162.172.269.211.269.099zm-.688-.451c0-.159-.966-.745-1.594-.967-.698-.246.149.477 1.05.896.43.2.544.215.544.07zm-4.268-2.169c0-.143-1.719-1.075-2.059-1.118-.465-.058.262.458 1.301.924.611.274.757.311.757.194zm-40.894-4.813c0-.126-.288-.159-.401-.046-.101.101-.089.11.145.11.141 0 .256-.029.256-.064zm10.139-2.735a.4.4 0 0 0-.207-.003c-.067.017-.029.033.085.034s.168-.013.122-.032zm-7.351-1.745c-.033-.054-.073-.058-.119-.012-.038.038-.046.105-.019.15.033.054.073.058.119.012.038-.038.046-.105.019-.15zm-4.271-3.369c.022-.035.008-.084-.03-.107s-.07.005-.07.064c0 .121.041.139.1.043z"/><path d="M32.818 11.945c-1.637 2.689 1.099 6.123.38 9.184.234 4.372-3.57 7.365-7.114 9.119-1.811.355-4.497 4.625-1.014 2.419 3.195-1.334 6.072-3.403 9.336-4.527 3.631-.616 6.269 2.271 8.689 4.47 13.7 11.748 31.424 18.057 49.227 19.855 2.646.075 7.175.174 7.079-3.567-.272-3.051-3.383-4.518-5.273-6.545-13.137-11.578-30.435-17.786-47.81-18.75-3.638-.119-8.116-.778-9.822-4.497-1.137-2.427-2.109-4.964-3.678-7.16zm47.564 22.117c.404.144.309.277 0 0zm5.834 16.525c.301-.099.027.136 0 0z"/></g></svg>