


<svg xmlns="http://www.w3.org/2000/svg" width="71.811" height="34.016" viewBox="0 0 19 9" xmlns:v="https://vecta.io/nano"><path d="M16.245 2.21c.102.147-.107.103 0 0zm.604-1.134c-.693.714-1.286 1.594-2.235 1.994-.888.214-1.822.345-2.736.235-.745-.052-1.454-.481-2.207-.326l-3.709.923c-1.301.738-2.532 1.599-3.787 2.413-.439.373-1.33.679-1.246 1.36.474.611 1.322.746 2.051.8 1.58.016 3.148-.252 4.707-.482l4.769-2.147c.847-.335 1.662-.789 2.549-1.002 1.291.128 2.536.543 3.813.761-.068-.234-.861-.455-1.177-.719-.533-.332-1.135-.76-1.123-1.463-.202-.802.304-1.576.329-2.348z" stroke="#ade5ef" fill="#ade5ef" stroke-width=".028"/></svg>